<svg id="Layer_1" data-name="Layer 1" xmlns="http://www.w3.org/2000/svg" viewBox="0 0 1080 1350"><defs><style>.cls-1{fill:#f2f2f2;}.cls-2,.cls-3{fill:#131313;}.cls-3{font-size:195.37px;font-family:Kanit-ExtraBoldItalic, Kanit;font-weight:700;font-style:italic;}</style></defs><title>Artboard 4 copy 11</title><rect class="cls-1" width="1080" height="1350"/><path class="cls-2" d="M406.45,392,649.5,361.61a156.12,156.12,0,0,0-243,30.39Z"/><path class="cls-2" d="M383.89,472.87l293.88-73.48a156.06,156.06,0,0,0-23.56-32.93L388.76,434.05A156.17,156.17,0,0,0,383.89,472.87Z"/><path class="cls-2" d="M696.11,472.87H383.89l307.4-38.43h.05A156,156,0,0,1,696.11,472.87Z"/><path class="cls-2" d="M673.55,553.74l-243,30.38a156.11,156.11,0,0,0,243-30.38Z"/><path class="cls-2" d="M696.11,472.87,402.23,546.34a156.12,156.12,0,0,0,23.56,32.94l265.45-67.59A156.23,156.23,0,0,0,696.11,472.87Z"/><path class="cls-2" d="M383.89,472.87H696.11L388.71,511.3h0A156,156,0,0,1,383.89,472.87Z"/><text class="cls-3" transform="translate(347.85 797.12)">SUN<tspan x="-180.62" y="161.1">RETURN</tspan></text></svg>